<?xml version="1.0" encoding="UTF-8" standalone="no"?>
<!-- Created with Inkscape (http://www.inkscape.org/) -->

<svg
   width="512"
   height="512"
   viewBox="0 0 511.99999 511.99999"
   version="1.1"
   id="svg5"
   xmlns="http://www.w3.org/2000/svg"
   xmlns:svg="http://www.w3.org/2000/svg">
  <defs
     id="defs2" />
  <g
     id="layer1"
     transform="translate(-5.8690952,-3.7175878)">
    <g
       aria-label="minimal"
       id="text2608"
       style="font-size:520.021px;line-height:1.25;stroke-width:9.75041">
      <g
         id="g66344"
         transform="matrix(1.001317,0,0,1,-0.06542816,0)">
        <path
           d="m 52.382414,374.71759 v -230 h 74.441966 l 12.83481,6.16072 q 14.8884,-2.56697 33.37055,-4.10714 18.99552,-2.05358 40.55803,-2.05358 h 27.72321 q 14.8884,0 28.75001,4.10715 13.86159,3.59375 20.53571,10.78125 8.72768,-4.62055 18.99553,-7.70089 10.26785,-3.59376 26.18303,-5.13393 16.42858,-2.05358 41.58482,-2.05358 h 25.66965 q 25.66964,0 39.53125,7.18751 13.86162,7.18749 19.50894,17.96874 6.16071,10.78125 7.18749,22.0759 1.54019,10.78125 1.54019,18.48213 V 374.71759 H 376.84669 V 229.94081 q 0,-20.53572 -24.64285,-20.53572 h -28.75 q -8.21429,0 -11.29465,2.05357 -3.08036,2.05358 -3.08036,9.24108 V 374.71759 H 213.58777 V 229.94081 q 0,-20.53572 -24.64286,-20.53572 h -26.18303 q -9.75447,0 -12.83483,2.05357 -2.56696,1.54019 -2.56696,9.24108 v 154.01785 z"
           style="fill:#c83838;fill-opacity:1;stroke-width:9.62614"
           id="path66247" />
      </g>
    </g>
  </g>
</svg>
