<?xml version="1.0" encoding="UTF-8" standalone="no"?>
<!-- Created with Inkscape (http://www.inkscape.org/) -->

<svg
   width="1600.0001"
   height="250.00024"
   viewBox="0 0 1600.0001 250.00024"
   version="1.1"
   id="svg5"
   xmlns="http://www.w3.org/2000/svg"
   xmlns:svg="http://www.w3.org/2000/svg">
  <defs
     id="defs2" />
  <g
     id="layer1"
     transform="translate(-49.681456,-126.20205)">
    <g
       aria-label="minimal"
       id="text2608"
       style="font-size:520.021px;line-height:1.25;stroke-width:9.75041">
      <g
         id="g66344"
         transform="matrix(1.001317,0,0,1,-0.06542816,0)">
        <path
           d="M 49.681454,376.2023 V 143.23289 H 125.0845 l 13.00052,6.24026 q 15.08061,-2.60011 33.80137,-4.16017 19.24077,-2.08009 41.08166,-2.08009 h 28.08113 q 15.08061,0 29.12118,4.16017 14.04056,3.64015 20.80084,10.92044 8.84035,-4.68019 19.24077,-7.80031 10.40042,-3.64015 26.52107,-5.20021 16.64068,-2.08009 42.1217,-2.08009 h 26.00105 q 26.00105,0 40.04162,7.2803 14.04057,7.28029 19.7608,18.20073 6.24025,10.92044 7.28029,22.36091 1.56007,10.92044 1.56007,18.72075 V 376.2023 H 378.33472 V 229.55638 q 0,-20.80084 -24.961,-20.80084 h -29.12118 q -8.32034,0 -11.44046,2.08008 -3.12013,2.08009 -3.12013,9.36038 v 156.0063 h -96.7239 V 229.55638 q 0,-20.80084 -24.96101,-20.80084 h -26.52107 q -9.8804,0 -13.00053,2.08008 -2.6001,1.56007 -2.6001,9.36038 v 156.0063 z"
           style="fill:#c83838;fill-opacity:1"
           id="path66247" />
        <path
           d="m 553.19198,176.90413 q -14.43059,0 -21.06086,-5.85024 -6.63028,-5.85024 -6.63028,-19.5008 0,-14.04058 6.24026,-19.5008 6.63027,-5.85024 21.45088,-5.85024 14.82061,0 21.45088,5.85024 6.63027,5.46022 6.63027,19.5008 0,13.26054 -6.63027,19.5008 -6.63027,5.85024 -21.45088,5.85024 z M 529.401,376.2023 V 201.47514 h 47.58195 V 376.2023 Z"
           style="font-size:390.016px"
           id="path66249" />
        <path
           d="M 628.07525,376.2023 V 201.47514 h 31.98131 l 15.60064,7.80032 q 16.38067,-3.12013 39.39161,-5.46023 23.01094,-2.34009 52.65216,-2.34009 h 19.5008 q 19.5008,0 30.03123,5.46022 10.53043,5.46022 14.82061,13.65056 4.68019,8.19034 5.46022,16.77069 1.17005,8.19033 1.17005,14.04057 V 376.2023 H 791.10193 V 250.61715 q 0,-15.60064 -18.72077,-15.60064 h -85.02348 q -7.41031,0 -9.7504,1.56007 -1.95008,1.17004 -1.95008,7.02028 V 376.2023 Z"
           style="font-size:390.016px"
           id="path66251" />
        <path
           d="m 911.22714,176.90413 q -14.4306,0 -21.06087,-5.85024 -6.63027,-5.85024 -6.63027,-19.5008 0,-14.04058 6.24026,-19.5008 6.63027,-5.85024 21.45088,-5.85024 14.8206,0 21.45087,5.85024 6.63028,5.46022 6.63028,19.5008 0,13.26054 -6.63028,19.5008 -6.63027,5.85024 -21.45087,5.85024 z M 887.43616,376.2023 V 201.47514 h 47.58195 V 376.2023 Z"
           style="font-size:390.016px"
           id="path66253" />
        <path
           d="M 986.1104,376.2023 V 201.47514 h 31.9813 l 9.7504,4.68019 q 11.3105,-1.95008 27.6911,-3.12013 16.3807,-1.56006 39.0016,-1.56006 h 19.5008 q 11.3105,0 21.8409,3.12012 10.5305,2.73012 15.6007,8.19034 10.1404,-5.07021 28.0811,-8.19034 17.9408,-3.12012 46.802,-3.12012 h 19.5008 q 19.5008,0 30.0312,5.46022 10.5304,5.46022 14.8206,13.65056 4.6802,8.19034 5.4602,16.77069 1.1701,8.19033 1.1701,14.04057 V 376.2023 h -47.582 V 250.61715 q 0,-15.60064 -18.7208,-15.60064 h -54.6022 q -6.2403,0 -8.5803,1.56007 -2.3401,1.56006 -2.3401,7.02028 V 376.2023 h -47.582 V 250.61715 q 0,-15.60064 -18.7208,-15.60064 h -53.8222 q -7.4103,0 -9.7504,1.56007 -1.95,1.17004 -1.95,7.02028 V 376.2023 Z"
           style="font-size:390.016px"
           id="path66255" />
        <path
           d="m 1392.5071,376.2023 q -29.6413,0 -42.9018,-13.65056 -13.2605,-14.04057 -13.2605,-38.22157 0,-25.35104 13.6505,-39.00159 14.0406,-13.65056 42.5118,-13.65056 h 19.8908 q 29.2512,0 52.6521,1.56006 23.401,1.56006 38.6116,3.12013 v -25.74106 q 0,-3.51014 -0.78,-7.02029 -0.78,-3.90016 -4.6802,-6.24025 -3.9002,-2.3401 -13.2606,-2.3401 H 1465.44 q -42.5117,0 -70.9829,1.56007 -28.4711,1.17004 -38.6115,2.34009 l -4.2902,-29.64121 q 0,-5.46023 29.6412,-6.63028 29.6412,-1.17004 99.0641,-1.17004 h 19.5008 q 19.5008,0 30.0312,5.46022 10.5304,5.46022 14.8206,13.65056 4.6802,8.19034 5.4602,16.77069 1.1701,8.19033 1.1701,14.04057 V 376.2023 h -31.9813 l -15.2107,-7.80032 q -16.3806,2.73011 -39.3916,5.46023 -23.0109,2.34009 -52.6521,2.34009 z m 10.1404,-33.54137 h 89.3136 q 8.5804,0 10.1405,-1.56007 1.56,-1.56006 1.56,-9.7504 v -30.03123 h -101.0141 q -10.5305,0 -14.8206,5.07021 -3.9002,5.07021 -3.9002,15.99065 0,10.92045 4.6802,15.60064 4.6802,4.6802 14.0406,4.6802 z"
           style="font-size:390.016px"
           id="path66257" />
        <path
           d="M 1599.9952,376.2023 V 160.13344 l -3.9002,-31.20128 h 51.4821 V 376.2023 Z"
           style="font-size:390.016px"
           id="path66259" />
      </g>
    </g>
  </g>
</svg>
