<?xml version="1.0" encoding="UTF-8" standalone="no"?>
<!-- Created with Inkscape (http://www.inkscape.org/) -->

<svg
   width="425.17435"
   height="250.3835"
   viewBox="0 0 425.17434 250.38349"
   version="1.1"
   id="svg5"
   xmlns="http://www.w3.org/2000/svg"
   xmlns:svg="http://www.w3.org/2000/svg">
  <defs
     id="defs2" />
  <g
     id="layer1"
     transform="translate(-49.281922,-126.21783)">
    <g
       aria-label="minimal"
       id="text2608"
       style="font-size:520.021px;line-height:1.25;stroke-width:9.75041">
      <g
         id="g66344"
         transform="matrix(1.001317,0,0,1,-0.06542816,0)">
        <path
           d="M 49.681454,376.2023 V 143.23289 H 125.0845 l 13.00052,6.24026 q 15.08061,-2.60011 33.80137,-4.16017 19.24077,-2.08009 41.08166,-2.08009 h 28.08113 q 15.08061,0 29.12118,4.16017 14.04056,3.64015 20.80084,10.92044 8.84035,-4.68019 19.24077,-7.80031 10.40042,-3.64015 26.52107,-5.20021 16.64068,-2.08009 42.1217,-2.08009 h 26.00105 q 26.00105,0 40.04162,7.2803 14.04057,7.28029 19.7608,18.20073 6.24025,10.92044 7.28029,22.36091 1.56007,10.92044 1.56007,18.72075 V 376.2023 H 378.33472 V 229.55638 q 0,-20.80084 -24.961,-20.80084 h -29.12118 q -8.32034,0 -11.44046,2.08008 -3.12013,2.08009 -3.12013,9.36038 v 156.0063 h -96.7239 V 229.55638 q 0,-20.80084 -24.96101,-20.80084 h -26.52107 q -9.8804,0 -13.00053,2.08008 -2.6001,1.56007 -2.6001,9.36038 v 156.0063 z"
           style="fill:#c83838;fill-opacity:1"
           id="path66247" />
      </g>
    </g>
  </g>
</svg>
